<?xml version="1.0" standalone="no"?>
<!DOCTYPE svg PUBLIC "-//W3C//DTD SVG 20010904//EN"
 "http://www.w3.org/TR/2001/REC-SVG-20010904/DTD/svg10.dtd">
<svg version="1.0" xmlns="http://www.w3.org/2000/svg"
 width="512.000000pt" height="512.000000pt" viewBox="0 0 512.000000 512.000000"
 preserveAspectRatio="xMidYMid meet">

<g transform="translate(0.000000,512.000000) scale(0.100000,-0.100000)"
fill="#000000" stroke="none">
<path d="M2550 5070 c-41 -5 -115 -20 -165 -34 -49 -14 -114 -26 -143 -26 -58
0 -98 -17 -153 -64 -20 -17 -53 -42 -73 -56 -53 -37 -124 -132 -144 -193 -10
-29 -32 -71 -49 -93 -122 -153 -190 -421 -133 -526 11 -21 26 -76 35 -122 8
-47 24 -124 35 -173 42 -177 49 -209 52 -248 3 -38 1 -40 -32 -46 -19 -4 -39
-14 -46 -23 -12 -17 -27 -133 -19 -147 3 -4 8 -39 10 -76 8 -142 26 -268 43
-302 11 -24 27 -39 47 -45 55 -16 57 -18 62 -91 6 -102 30 -232 54 -295 50
-133 51 -142 35 -251 -22 -145 -51 -195 -166 -282 -30 -23 -72 -56 -94 -74
-26 -22 -57 -36 -95 -43 -31 -6 -78 -17 -106 -25 -51 -15 -220 -38 -265 -37
-14 1 -36 -3 -50 -8 -14 -5 -36 -12 -50 -15 -14 -2 -50 -12 -80 -21 -30 -9
-77 -20 -105 -24 -89 -13 -158 -32 -202 -55 -24 -13 -60 -29 -81 -36 -48 -16
-183 -81 -236 -115 -60 -38 -154 -159 -208 -266 -44 -89 -95 -231 -116 -328
-6 -25 -17 -74 -26 -110 -21 -88 -35 -210 -41 -360 -8 -181 -14 -287 -21 -356
-7 -74 0 -104 27 -104 17 0 19 8 19 93 0 255 28 607 60 759 85 407 204 601
440 715 175 85 286 124 425 147 50 8 109 22 132 30 24 8 107 25 185 36 79 12
161 25 183 30 71 17 75 15 76 -32 0 -48 28 -129 46 -135 7 -3 6 9 -4 38 -16
48 -13 143 5 145 7 1 16 2 21 3 15 2 244 176 273 207 14 16 35 47 47 69 20 40
55 221 45 237 -3 4 -3 8 0 8 2 0 14 -19 25 -43 27 -55 121 -163 187 -216 146
-115 370 -163 549 -117 74 19 149 69 295 197 l66 57 -4 -61 c-5 -72 10 -162
35 -215 27 -57 161 -186 229 -220 38 -19 64 -40 72 -57 7 -15 12 -73 12 -143
-1 -163 -40 -295 -139 -466 -125 -215 -290 -300 -586 -301 -94 0 -171 6 -235
18 -107 20 -275 64 -304 79 -11 6 -44 12 -74 14 -114 7 -259 99 -340 217 -71
104 -167 281 -196 361 -30 83 -49 107 -35 45 23 -99 107 -278 190 -400 59 -87
174 -187 279 -241 67 -35 96 -46 108 -39 17 9 38 5 292 -54 85 -19 154 -28
266 -32 141 -5 156 -4 260 22 161 41 200 63 298 166 70 74 93 106 139 201 94
190 123 317 108 466 -5 48 -7 89 -5 91 2 2 25 -10 51 -27 63 -41 131 -70 288
-125 172 -59 281 -105 445 -186 241 -119 295 -165 361 -305 68 -145 105 -303
125 -533 l6 -73 37 0 c33 1 35 2 17 15 -15 11 -21 34 -27 102 -15 175 -67 375
-131 510 -37 76 -127 178 -185 208 -21 11 -56 32 -78 46 -22 14 -69 38 -105
53 -36 16 -83 36 -105 46 -160 72 -216 95 -297 121 -104 33 -198 69 -212 81
-6 4 -17 8 -26 8 -8 0 -49 21 -90 47 -41 25 -110 64 -154 86 -91 46 -193 137
-231 205 -22 38 -27 64 -33 158 -8 131 -4 145 60 212 58 59 138 213 152 292 2
14 7 37 11 51 3 14 10 66 13 114 l7 87 45 17 c38 14 47 23 61 61 15 41 62 407
62 488 0 43 -21 81 -49 88 -12 3 -25 12 -28 20 -6 16 29 297 45 355 5 20 11
85 15 145 3 60 12 134 21 164 52 189 -19 385 -207 563 -51 48 -107 94 -124
103 -17 8 -49 27 -71 43 -35 25 -194 95 -280 123 -96 32 -212 41 -335 28z m8
-681 c26 -6 54 -14 62 -18 23 -11 98 -13 104 -2 12 19 308 -2 326 -24 7 -8 28
-18 49 -21 20 -4 50 -18 67 -31 17 -12 36 -23 42 -23 17 0 71 -50 115 -105 22
-27 42 -48 46 -46 7 4 39 -49 40 -68 1 -11 -2 -11 -14 -1 -22 18 -18 -3 6 -35
15 -18 18 -29 11 -34 -9 -5 -9 -31 -1 -96 6 -55 8 -218 5 -420 -5 -292 -10
-355 -36 -550 -37 -266 -51 -326 -102 -431 -49 -101 -218 -298 -218 -255 0 17
-60 -20 -82 -50 -12 -16 -30 -28 -39 -27 -9 2 -23 -3 -32 -11 -15 -12 -17 -11
-17 6 0 10 5 24 12 31 9 9 9 12 0 12 -7 0 -17 -12 -23 -27 -6 -15 -16 -34 -22
-42 -10 -12 -13 -8 -18 20 -6 31 -7 32 -14 11 -8 -24 -65 -61 -65 -42 0 6 7
18 15 26 8 9 15 19 15 24 0 5 -17 -9 -38 -31 -35 -38 -39 -40 -65 -28 -19 8
-34 9 -49 2 -13 -5 -65 -9 -115 -9 -51 1 -94 -3 -96 -8 -2 -5 -10 -1 -19 8 -9
9 -22 15 -29 14 -6 -2 -17 15 -23 36 -6 22 -17 41 -25 44 -10 3 -11 0 -2 -16
17 -32 13 -33 -15 -7 -20 18 -33 22 -58 18 -32 -5 -35 -3 -61 46 -15 28 -31
48 -36 46 -4 -3 -29 20 -55 51 -27 31 -50 51 -52 44 -7 -19 -71 97 -97 175
-29 85 -62 337 -71 539 -4 77 -10 146 -13 151 -9 13 -6 90 8 290 12 167 19
203 58 324 26 81 47 113 70 104 9 -4 16 2 20 16 3 11 8 21 12 21 4 0 24 24 46
53 53 71 117 137 127 131 4 -3 5 1 2 9 -3 8 -1 18 5 22 6 3 11 1 11 -6 0 -9 3
-9 14 0 7 6 20 9 28 6 9 -4 25 9 43 35 19 28 33 39 45 35 11 -4 20 3 28 20 6
14 17 25 25 25 7 0 18 14 25 32 9 25 14 30 24 20 18 -18 28 -15 28 8 0 23 5
24 68 9z m-468 -303 c0 -2 -8 -10 -17 -17 -16 -13 -17 -12 -4 4 13 16 21 21
21 13z m-36 -61 c-4 -8 -11 -15 -16 -15 -6 0 -5 6 2 15 7 8 14 15 16 15 2 0 1
-7 -2 -15z m1476 -555 c14 -34 5 -140 -12 -140 -6 0 -8 12 -4 30 5 29 -7 42
-17 18 -3 -7 -6 -2 -6 11 -1 20 -3 21 -16 11 -8 -7 -15 -18 -15 -26 0 -7 -5
-16 -11 -20 -9 -5 -10 9 -7 49 7 89 62 130 88 67z m-1714 -34 l7 -29 -22 22
c-27 27 -42 20 -18 -7 10 -10 17 -24 17 -31 0 -7 7 -35 17 -63 13 -41 14 -57
5 -82 -15 -40 -15 -73 -2 -81 6 -3 10 -15 10 -26 0 -11 -4 -17 -10 -14 -5 3
-10 15 -10 25 0 10 -5 22 -11 26 -8 4 -9 -3 -4 -25 4 -20 2 -37 -5 -46 -9 -11
-10 -15 -1 -15 7 0 19 -17 28 -37 13 -33 16 -36 28 -20 10 14 13 7 18 -50 4
-37 3 -71 -1 -75 -12 -12 -72 30 -83 58 -5 15 -12 56 -14 93 -2 36 -9 131 -16
210 -12 159 -9 188 24 200 26 11 33 5 43 -33z m24 -64 c0 -15 -2 -15 -10 -2
-13 20 -13 33 0 25 6 -3 10 -14 10 -23z m1632 -34 c-7 -7 -12 -19 -12 -27 0
-11 3 -12 11 -4 16 16 41 -10 33 -32 -4 -9 -2 -20 4 -24 15 -9 -12 -260 -33
-300 -13 -26 -59 -52 -69 -40 -2 2 0 39 5 82 6 66 12 83 40 118 32 41 57 130
38 137 -5 2 -9 10 -9 18 0 21 -16 17 -28 -8 -10 -21 -11 -19 -11 16 -1 35 20
76 38 76 3 0 0 -5 -7 -12z m-1625 -140 c-3 -8 -6 -5 -6 6 -1 11 2 17 5 13 3
-3 4 -12 1 -19z m10 -80 c-3 -8 -6 -5 -6 6 -1 11 2 17 5 13 3 -3 4 -12 1 -19z
m433 -958 c0 -5 -4 -10 -10 -10 -5 0 -10 5 -10 10 0 6 5 10 10 10 6 0 10 -4
10 -10z"/>
<path d="M2070 3659 c-68 -29 -130 -139 -78 -139 7 0 31 9 54 20 23 12 64 23
90 26 50 6 187 -14 283 -41 41 -11 58 -12 75 -3 11 6 16 13 10 15 -7 2 -10 12
-7 22 6 24 -40 52 -132 81 -80 25 -255 37 -295 19z"/>
<path d="M3020 3659 c-93 -16 -191 -49 -216 -74 -28 -28 -29 -34 -10 -60 13
-18 19 -19 77 -7 35 6 89 18 119 27 64 18 165 19 241 4 83 -17 108 -19 113
-11 10 17 -41 96 -74 113 -38 21 -150 24 -250 8z"/>
<path d="M2180 3506 c-62 -18 -124 -45 -117 -52 3 -3 14 -1 24 4 28 15 158 42
200 42 49 0 108 -17 128 -36 21 -21 19 -41 -2 -22 -69 60 -254 40 -321 -35
-16 -19 -16 -20 6 -14 12 3 36 -1 52 -9 31 -16 122 -21 257 -14 l81 4 -14 27
c-8 15 -18 30 -23 34 -6 3 -8 11 -5 18 6 17 -22 41 -65 56 -44 14 -143 13
-201 -3z m20 -75 c0 -5 3 -17 7 -27 5 -15 2 -16 -27 -10 -44 8 -48 13 -24 31
22 16 44 19 44 6z m130 -6 c0 -8 -7 -15 -15 -15 -16 0 -20 12 -8 23 11 12 23
8 23 -8z m72 -6 c17 -9 18 -13 7 -20 -26 -16 -48 -11 -42 11 6 23 8 24 35 9z"/>
<path d="M2955 3510 c-46 -8 -140 -48 -133 -56 3 -2 38 4 77 15 39 11 71 16
71 11 0 -5 -16 -12 -35 -16 -20 -3 -52 -21 -73 -40 -43 -39 -66 -46 -32 -9 25
27 16 34 -15 11 -16 -11 -17 -18 -9 -37 11 -23 14 -24 125 -21 123 3 229 19
229 34 0 8 -18 5 -57 -9 -9 -4 -13 5 -13 27 0 28 2 31 23 25 12 -4 37 -15 55
-26 22 -13 32 -15 32 -6 0 19 -57 49 -130 69 l-65 17 60 -6 c33 -3 82 -14 108
-26 58 -24 74 -16 20 11 -71 36 -154 47 -238 32z m92 -94 c-4 -9 -13 -13 -22
-10 -18 7 -20 31 -2 37 17 6 31 -9 24 -27z m-112 -10 c0 -14 -9 -19 -42 -21
-50 -4 -54 3 -15 27 34 21 57 18 57 -6z"/>
<path d="M2385 3038 c-62 -34 -73 -102 -25 -150 35 -34 55 -30 22 5 -43 47
-35 115 18 132 11 3 20 11 20 16 0 12 -10 11 -35 -3z"/>
<path d="M2875 2990 c18 -50 14 -94 -12 -122 -24 -26 2 -22 27 5 29 29 23 108
-9 140 l-22 22 16 -45z"/>
<path d="M2427 2923 c-10 -10 3 -23 37 -37 18 -7 49 -28 69 -45 55 -49 94 -51
159 -8 29 19 71 43 93 53 34 15 37 18 18 21 -22 4 -80 -22 -124 -58 -39 -31
-80 -27 -136 13 -59 43 -108 69 -116 61z"/>
<path d="M2416 2781 c-13 -15 -14 -20 -4 -24 7 -2 -10 -18 -40 -37 -29 -18
-50 -35 -48 -37 5 -5 63 12 114 33 28 12 32 12 32 -2 0 -11 4 -12 19 -4 11 6
21 6 23 1 2 -5 12 -3 23 6 16 13 17 15 2 10 -16 -6 -16 -5 -1 19 18 27 13 38
-23 48 -22 7 -42 -7 -71 -50 -11 -16 -12 -16 -8 -1 3 9 0 17 -6 17 -7 0 -6 5
2 15 19 23 6 28 -14 6z"/>
<path d="M2275 2739 c-4 -13 -12 -18 -22 -15 -9 4 -22 -1 -30 -11 -13 -17 -14
-16 -10 5 4 18 3 21 -8 12 -7 -6 -15 -22 -18 -36 -3 -20 -1 -23 13 -19 12 4
16 0 16 -17 -1 -13 4 -23 9 -23 6 0 27 -11 47 -23 28 -18 46 -22 68 -17 38 8
29 25 -13 25 -64 0 -67 14 -12 71 40 41 45 51 27 46 -20 -5 -21 -3 -10 10 12
14 11 15 -9 5 -27 -15 -36 -15 -28 -2 3 6 2 10 -4 10 -5 0 -13 -9 -16 -21z"/>
<path d="M2670 2704 c0 -8 5 -12 10 -9 6 3 10 10 10 16 0 5 -4 9 -10 9 -5 0
-10 -7 -10 -16z"/>
<path d="M2805 2680 c3 -5 10 -10 16 -10 5 0 9 5 9 10 0 6 -7 10 -16 10 -8 0
-12 -4 -9 -10z"/>
<path d="M2405 2603 c6 -6 44 -22 85 -38 107 -39 265 -51 378 -28 52 11 82 22
82 30 0 17 -18 16 -70 -2 -28 -10 -80 -15 -154 -15 -106 0 -155 9 -309 55 -14
5 -18 4 -12 -2z"/>
<path d="M2226 2255 c-3 -8 -1 -25 4 -37 8 -20 9 -18 9 15 1 39 -3 47 -13 22z"/>
<path d="M1760 3324 c0 -49 2 -55 15 -44 9 8 15 30 15 56 0 32 -4 44 -15 44
-12 0 -15 -13 -15 -56z"/>
<path d="M869 1478 c-2 -101 -4 -340 -4 -533 0 -341 1 -354 29 -505 18 -100
30 -206 33 -298 5 -130 7 -142 24 -142 16 0 19 9 21 63 4 107 -2 177 -28 332
-14 83 -30 182 -36 220 -7 43 -11 253 -10 540 1 259 -1 478 -4 488 -14 47 -21
1 -25 -165z"/>
<path d="M3991 1275 c-1 -71 27 -307 38 -318 16 -16 14 58 -4 193 -17 119 -33
180 -34 125z"/>
<path d="M4100 1177 c0 -10 7 -71 15 -135 8 -64 16 -189 17 -277 3 -134 5
-160 18 -160 23 0 18 306 -8 447 -20 103 -41 168 -42 125z"/>
<path d="M1826 1158 c10 -14 21 -24 23 -22 3 3 -6 15 -18 27 l-24 22 19 -27z"/>
<path d="M1036 873 c-6 -14 -5 -15 5 -6 7 7 10 15 7 18 -3 3 -9 -2 -12 -12z"/>
<path d="M1007 808 c-21 -47 -41 -206 -34 -270 4 -29 13 -87 20 -128 10 -59
15 -70 20 -50 12 46 8 127 -8 140 -8 7 -15 27 -15 44 0 35 27 234 36 273 9 33
-1 28 -19 -9z"/>
<path d="M2150 802 c0 -5 18 -16 40 -25 49 -19 51 -15 6 12 -36 23 -46 25 -46
13z"/>
<path d="M3400 500 c-8 -5 -11 -12 -7 -16 4 -4 15 0 24 9 18 18 8 23 -17 7z"/>
<path d="M4287 463 c-4 -3 -7 -11 -7 -17 0 -6 5 -5 12 2 6 6 9 14 7 17 -3 3
-9 2 -12 -2z"/>
<path d="M4713 443 c-7 -2 -12 -14 -12 -26 1 -17 2 -18 6 -4 5 20 24 22 41 5
9 -9 12 -8 12 4 0 12 -24 32 -33 27 -1 0 -8 -3 -14 -6z"/>
<path d="M4120 355 l0 -75 75 0 75 0 0 75 0 75 -75 0 -75 0 0 -75z"/>
<path d="M4892 340 c-1 -14 -11 -42 -22 -63 -22 -41 -10 -51 15 -13 10 15 15
39 12 63 -2 22 -4 27 -5 13z"/>
<path d="M4005 169 c-4 -11 -10 -54 -14 -95 -6 -67 -5 -74 11 -74 10 0 20 10
23 23 19 82 32 157 27 162 -13 12 -41 3 -47 -16z"/>
<path d="M4780 141 c-15 -29 -13 -141 3 -141 7 0 13 8 13 18 0 9 4 45 8 80 7
63 -3 82 -24 43z"/>
<path d="M3779 76 c7 -8 24 -17 39 -21 15 -3 39 -18 53 -32 17 -15 36 -23 50
-21 21 3 19 6 -18 31 -48 33 -143 66 -124 43z"/>
<path d="M2835 22 c-30 -16 -30 -17 -6 -20 14 -2 32 4 45 17 26 26 5 28 -39 3z"/>
</g>
</svg>
